<!DOCTYPE svg PUBLIC "-//W3C//DTD SVG 1.1//EN" "http://www.w3.org/Graphics/SVG/1.1/DTD/svg11.dtd">

<!-- Uploaded to: SVG Repo, www.svgrepo.com, Transformed by: SVG Repo Mixer Tools -->
<svg width="100%" height="100%" viewBox="0 0 32 32" version="1.1" xmlns="http://www.w3.org/2000/svg" xmlns:xlink="http://www.w3.org/1999/xlink"
		 fill="currentColor" transform="rotate(90)">

<g id="SVGRepo_bgCarrier" stroke-width="0"/>

<g id="SVGRepo_tracerCarrier" stroke-linecap="round" stroke-linejoin="round"/>

<g id="SVGRepo_iconCarrier"> <g id="icomoon-ignore"> </g> <path
	d="M3.205 12.801c-1.767 0-3.199 1.432-3.199 3.199s1.432 3.199 3.199 3.199c1.766 0 3.199-1.432 3.199-3.199s-1.433-3.199-3.199-3.199zM3.205 18.133c-1.177 0-2.132-0.956-2.132-2.133s0.956-2.133 2.132-2.133c1.176 0 2.133 0.956 2.133 2.133s-0.957 2.133-2.132 2.133z" fill="currentColor"> </path> <path d="M28.795 12.801c-1.767 0-3.199 1.432-3.199 3.199s1.432 3.199 3.199 3.199c1.766 0 3.199-1.432 3.199-3.199s-1.433-3.199-3.199-3.199zM28.795 18.133c-1.176 0-2.133-0.956-2.133-2.133s0.957-2.133 2.133-2.133c1.176 0 2.133 0.956 2.133 2.133s-0.957 2.133-2.133 2.133z" fill="currentColor"> </path> <path d="M16 12.801c-1.767 0-3.199 1.432-3.199 3.199s1.432 3.199 3.199 3.199c1.766 0 3.199-1.432 3.199-3.199s-1.433-3.199-3.199-3.199zM16 18.133c-1.176 0-2.133-0.956-2.133-2.133s0.957-2.133 2.133-2.133c1.176 0 2.133 0.956 2.133 2.133s-0.957 2.133-2.133 2.133z" fill="currentColor"> </path> </g>

</svg>
